# xmcd
#
# Track frame offsets:
#	150
#	2410
#	18700
#	35030
#	51702
#	68525
#	85542
#	102775
#	119987
#	137022
#	154150
#	171297
#	188690
#	206145
#	222202
#	238242
#	254277
#	270315
#	286355
#	302395
#	318430
#	334872
#
# Disc length: 4804 seconds
#
# Revision: 1
# Processed by: cddbd v1.5.1PL0 Copyright (c) Steve Scherf et al.
# Submitted via: CDex 1.50Beta5
#
DISCID=4012c216
DTITLE=ギロチン兄弟 - ギロチン兄弟のギター万歳!!!
DYEAR=1900
DGENRE=Unclassifiable
TTITLE0=Introduction
TTITLE1=Guillotine Kyodai, Uchihashi Kazuhisa
TTITLE2=Uchihashi Kazuhisa, Imahori Tsuneo
TTITLE3=Imahori Tsuneo, Reck
TTITLE4=Reck, Otomo Yoshihide
TTITLE5=Otomo Yoshihide, Agata Ichiro
TTITLE6=Agata Ichiro, Takehisa Ken
TTITLE7=Takehisa Ken, Ohno Masahiko
TTITLE8=Ohno Masahiko, Yamamoto Seiichi
TTITLE9=Yamamoto Seiichi, Kido Natsuki
TTITLE10=Kido Natsuki, Isoda Osamu
TTITLE11=Isoda Osamu, Guillotine Kyodai
TTITLE12=Confirm (Uchihashi Kazuhisa⇔Isoda Osamu)
TTITLE13=Inspect: 今堀恒雄
TTITLE14=Inspect: Яeck
TTITLE15=Inspect: 大友良英
TTITLE16=Inspect: 縣一郎
TTITLE17=Inspect: 竹久圏
TTITLE18=Inspect: 大野雅彦
TTITLE19=Inspect: 山本精一
TTITLE20=Inspect: 鬼怒無月
TTITLE21=Viva Guitar
EXTD=
EXTT0=
EXTT1=
EXTT2=
EXTT3=
EXTT4=
EXTT5=
EXTT6=
EXTT7=
EXTT8=
EXTT9=
EXTT10=
EXTT11=
EXTT12=
EXTT13=
EXTT14=
EXTT15=
EXTT16=
EXTT17=
EXTT18=
EXTT19=
EXTT20=
EXTT21=
PLAYORDER=
